<svg width="64" height="64" viewBox="0 0 64 64" fill="none" xmlns="http://www.w3.org/2000/svg">
  <rect width="64" height="64" rx="18" fill="#2A3563"/>
  <rect x="8" y="8" width="48" height="48" rx="14" fill="#18244F" stroke="#4A5A93" stroke-width="2"/>
  <path d="M32 18C28.8 18 25.6 19.4 23.4 22L21 24.9L23.9 28.1L26.2 25.4V33.4C26.2 37.4 28.8 40.9 32.6 42.1V46H35.8V42.1C39.5 40.8 42 37.4 42 33.4V25.4L44.3 28.1L47.2 24.9L44.8 22C42.4 19.4 39.2 18 36 18H32Z" fill="#F5B301"/>
  <path d="M33.7 25.4C35.5 25.4 36.8 26.3 36.8 27.8H39.7C39.7 25.2 37.9 23.3 35 22.8V20.9H32.3V22.8C29.4 23.3 27.6 25.1 27.6 27.8C27.6 30.9 30 32 32.6 32.7C34.9 33.3 36.5 33.7 36.5 35C36.5 36.2 35.4 37 33.7 37C31.8 37 30.5 36.1 30.4 34.5H27.4C27.6 37.2 29.4 39 32.3 39.5V41.3H35V39.5C37.8 39 39.5 37.2 39.5 34.8C39.5 31.8 37.1 30.7 34.4 30C32.2 29.4 30.5 28.9 30.5 27.7C30.5 26.3 31.8 25.4 33.7 25.4Z" fill="#0F1A3E"/>
  <circle cx="21" cy="18" r="2.5" fill="#8EA2E1" fill-opacity="0.55"/>
</svg>